<?xml version="1.0" encoding="utf-8"?>
<!-- Generator: Adobe Illustrator 22.1.0, SVG Export Plug-In . SVG Version: 6.00 Build 0)  -->
<svg version="1.1" id="Layer_1" xmlns="http://www.w3.org/2000/svg" xmlns:xlink="http://www.w3.org/1999/xlink" x="0px" y="0px"
	 viewBox="0 0 942.9 249.5" style="enable-background:new 0 0 942.9 249.5;" xml:space="preserve">
<style type="text/css">
	.st0{fill:none;}
	.st1{fill:#FFFFFF;}
	.st2{fill:#C2D500;}
</style>
<rect class="st0" width="942.9" height="249.5"/>
<g>
	<path class="st1" d="M108.5,106.6c4.9-4.5,10.8-6.8,17.7-6.8c8.6,0,15.8,3.6,21.6,10.8l11.4-12.9c-9.1-10.3-20.4-15.4-33.9-15.4
		c-12.1,0-22.3,4.1-30.6,12.2c-8.4,8.2-12.5,18.3-12.5,30.5c0,12.2,4.1,22.3,12.3,30.3c8.2,8,18.6,12,31.3,12
		c12.7,0,23.7-5.3,33-15.8L147,139.5c-5.7,7.1-13.1,10.7-22.1,10.7c-6.6,0-12.2-2.3-16.8-6.9c-4.6-4.6-6.9-10.8-6.9-18.4
		C101.2,117.2,103.6,111.1,108.5,106.6z M237,118.5h-32.7V84.2H186v82.2h18.3V134H237v32.3h18.4V84.2H237V118.5z M437.2,129.3
		l-21.2-45.2h-24.8v82.2h18.4v-51.8l22.1,44.9h10.9l22.2-44.9v51.8h18.3V84.2h-24.7L437.2,129.3z M738.2,166.4h18.4V84.2h-18.4
		V166.4z M556.1,82.3c-12.2,0-22.4,4.1-30.7,12.2c-8.3,8.1-12.5,18.2-12.5,30.3c0,12.1,4.2,22.2,12.5,30.3s18.5,12.2,30.7,12.2
		c12.2,0,22.4-4.1,30.7-12.2c8.3-8.1,12.5-18.2,12.5-30.3c0-12.1-4.2-22.2-12.5-30.3C578.4,86.3,568.2,82.3,556.1,82.3z
		 M573.5,143.5c-4.7,5.1-10.5,7.7-17.3,7.7c-6.9,0-12.6-2.6-17.3-7.7c-4.7-5.1-7.1-11.4-7.1-18.7c0-7.3,2.4-13.6,7.1-18.8
		c4.7-5.2,10.5-7.8,17.3-7.8c6.9,0,12.6,2.6,17.3,7.8c4.7,5.2,7.1,11.4,7.1,18.8C580.5,132.1,578.2,138.4,573.5,143.5z M832.9,123.8
		l25.6-39.6h-22.1l-15.6,24.3l-15.6-24.3h-22l25.8,40.1l-27.6,42.1h22.1l17.4-27.1l17.5,27.1h22.4L832.9,123.8z M686,137.1
		l-40.3-52.9h-17.2v82.2h18.3v-51.5l39.2,51.5h18.4V84.2H686V137.1z"/>
	<path class="st2" d="M337,84.7c0.1,0,0.2-0.1,0.2-0.2c0-0.1-0.1-0.2-0.2-0.2h-16.5c-3.9,0-7.3,2.4-8.7,5.8l-33.1,76.6h19.6
		L331.2,90C332.3,87.5,334.4,85.6,337,84.7z M338.5,99.4c-0.2-0.6-0.8-1-1.4-1c-0.6,0-1.2,0.4-1.4,1l-8.3,19.4l20.7,47.9h19.6
		L338.5,99.4z"/>
</g>
</svg>
